<?xml version="1.0" standalone="no"?>
<!DOCTYPE svg PUBLIC "-//W3C//DTD SVG 20010904//EN"
 "http://www.w3.org/TR/2001/REC-SVG-20010904/DTD/svg10.dtd">
<svg version="1.0" xmlns="http://www.w3.org/2000/svg"
 width="500.000000pt" height="500.000000pt" viewBox="0 0 500.000000 500.000000"
 preserveAspectRatio="xMidYMid meet">
<metadata>
Created by potrace 1.11, written by Peter Selinger 2001-2013
</metadata>
<g transform="translate(0.000000,500.000000) scale(0.100000,-0.100000)"
fill="#000000" stroke="none">
<path d="M875 4992 c-2 -2 -34 -5 -70 -7 -36 -1 -68 -5 -72 -8 -3 -4 -1 -18 5
-32 11 -23 1 -76 -18 -98 -14 -16 -51 -15 -88 1 -20 9 -48 17 -62 17 -14 1
-31 5 -38 9 -7 4 -12 2 -12 -4 0 -6 -7 -4 -16 5 -18 18 -60 16 -124 -5 -19 -6
-42 -13 -50 -15 -8 -3 -46 -15 -85 -28 -38 -13 -81 -22 -95 -20 -13 2 -36 5
-51 6 -15 1 -27 4 -27 7 3 15 -16 39 -26 33 -6 -3 0 5 14 18 14 14 38 30 53
37 15 7 25 17 22 22 -10 16 -57 38 -98 44 l-37 6 2 -177 3 -177 31 -8 c17 -4
42 -18 55 -31 16 -16 36 -24 62 -25 20 0 38 -1 40 -2 1 -2 22 -4 47 -5 61 -3
112 -12 146 -26 39 -15 132 -13 152 3 12 11 16 11 20 0 2 -9 12 -3 26 17 17
23 25 27 39 20 13 -8 19 -6 23 6 4 9 4 19 0 22 -3 4 -6 -2 -6 -13 -1 -19 -1
-19 -15 0 -15 20 -50 33 -39 14 4 -6 -4 -8 -17 -6 -13 1 -24 10 -24 18 0 9 -9
15 -23 14 -18 -1 -20 1 -11 13 9 10 15 11 23 3 12 -12 29 -14 22 -2 -3 5 5 8
17 7 11 -1 31 10 44 23 13 14 23 21 23 16 0 -5 4 -2 10 6 5 9 22 13 43 12 22
-2 42 5 58 18 13 12 25 17 27 11 2 -5 10 -7 18 -4 13 5 13 7 2 14 -9 6 -4 9
15 9 16 0 26 4 22 10 -3 6 1 7 10 4 11 -5 13 -10 5 -19 -5 -6 -6 -16 -2 -20 4
-5 1 -5 -7 0 -9 5 -12 3 -9 -6 5 -16 84 -22 108 -8 8 5 11 9 7 9 -5 0 -1 7 7
16 9 9 21 12 28 7 19 -11 38 -12 38 -2 0 6 5 7 10 4 6 -3 10 -1 10 4 0 6 3 10
8 9 13 -2 66 14 81 26 12 9 13 8 6 -4 -5 -8 8 -2 30 14 27 21 37 25 32 13 -6
-15 -3 -16 13 -7 11 6 20 13 20 16 0 3 -5 2 -11 -2 -8 -4 -8 -1 -1 12 5 11 8
27 7 36 -2 12 2 15 13 11 31 -11 33 -15 18 -38 -9 -13 -13 -30 -10 -38 5 -15
9 -15 104 -2 25 4 51 7 58 8 7 0 11 6 8 14 -3 7 -1 13 5 13 6 0 7 5 4 11 -4 6
0 9 10 7 10 -2 20 3 22 10 3 8 -2 10 -14 7 -11 -4 -9 -1 5 6 28 15 28 27 -2
39 -13 5 -27 14 -31 19 -3 6 -15 11 -26 11 -10 0 -19 5 -19 11 0 5 -4 7 -10 4
-5 -3 -20 1 -32 9 -28 20 -52 20 -68 1 -7 -8 -16 -13 -20 -10 -5 3 -10 0 -12
-5 -2 -6 -21 -13 -42 -17 -28 -4 -37 -3 -32 5 5 8 0 12 -13 12 -12 0 -21 5
-21 10 0 6 -6 10 -12 10 -7 0 -25 7 -40 14 -15 8 -30 11 -33 6 -3 -5 -22 -7
-43 -4 -56 8 -112 11 -117 6z m346 -89 c13 -16 12 -17 -3 -4 -10 7 -18 15 -18
17 0 8 8 3 21 -13z m-290 -77 c-6 -7 -9 -20 -6 -28 4 -9 -1 -14 -13 -14 -12 0
-18 8 -18 22 0 13 5 20 12 17 7 -2 15 0 19 6 3 6 9 11 12 11 3 0 0 -6 -6 -14z
m416 -22 c-3 -3 -12 -4 -19 -1 -8 3 -5 6 6 6 11 1 17 -2 13 -5z m-971 -92 c-3
-5 8 -19 24 -31 17 -12 30 -27 30 -33 0 -7 -9 -2 -21 10 -11 12 -24 20 -30 17
-13 -9 0 -27 14 -19 7 3 3 -2 -8 -10 -18 -15 -21 -15 -43 7 -32 32 -20 59 31
66 5 0 6 -3 3 -7z m137 -41 c8 -1 -22 -52 -37 -63 -6 -4 -18 -2 -28 3 -30 16
4 71 40 64 9 -2 20 -4 25 -4z m-175 -23 c7 -7 12 -16 12 -20 0 -15 -15 -8 -28
12 -13 22 -3 27 16 8z"/>
<path d="M1230 4829 c0 -5 5 -7 10 -4 6 3 10 8 10 11 0 2 -4 4 -10 4 -5 0 -10
-5 -10 -11z"/>
<path d="M948 4688 c5 -5 16 -8 23 -6 8 3 3 7 -10 11 -17 4 -21 3 -13 -5z"/>
<path d="M986 4648 c3 -4 0 -8 -7 -8 -7 0 -10 -2 -7 -5 7 -7 38 5 38 14 0 4
-7 8 -15 8 -8 0 -12 -4 -9 -9z"/>
<path d="M4500 4305 c8 -10 26 -15 47 -13 31 2 33 4 17 15 -10 7 -31 13 -47
13 -25 0 -28 -2 -17 -15z"/>
<path d="M399 4216 c-10 -12 -2 -35 13 -39 13 -4 17 -10 12 -18 -4 -7 -3 -10
4 -5 6 3 22 1 37 -6 18 -8 29 -9 33 -1 4 5 17 9 29 8 12 -1 20 2 17 7 -3 4 1
11 9 14 8 3 13 13 10 22 -3 14 -18 17 -84 18 -43 0 -79 0 -80 0z"/>
<path d="M230 4103 c0 -11 -8 -14 -29 -11 -48 7 -16 -26 43 -45 61 -19 78 -9
54 30 -19 32 -68 50 -68 26z"/>
<path d="M13 4003 c-9 -3 -13 -26 -13 -64 l0 -59 27 11 c32 12 43 26 43 55 0
24 -39 63 -57 57z"/>
<path d="M354 3985 c-2 -19 3 -25 17 -25 11 0 22 7 26 15 6 18 5 20 -22 29
-16 5 -20 1 -21 -19z"/>
<path d="M105 3910 c29 -48 58 -63 69 -35 4 10 -3 17 -22 21 -15 4 -33 12 -41
18 -12 9 -13 8 -6 -4z"/>
<path d="M550 3885 c0 -14 5 -25 11 -25 7 0 17 -7 24 -16 11 -16 12 -16 18 0
5 12 3 15 -6 10 -9 -6 -9 -4 1 8 10 13 10 19 -3 32 -24 24 -45 20 -45 -9z"/>
<path d="M13 3533 c-14 -5 -18 -93 -4 -93 18 0 76 47 79 64 6 29 -36 45 -75
29z"/>
<path d="M83 3073 c-7 -3 -13 -11 -13 -19 0 -15 55 -20 64 -5 7 10 -35 29 -51
24z"/>
<path d="M2940 3065 c-16 -19 -40 -83 -40 -106 0 -12 8 -23 20 -26 10 -3 26
-15 34 -28 8 -13 32 -28 53 -35 21 -6 48 -16 61 -23 18 -8 28 -8 42 1 11 7 26
12 35 12 8 0 22 11 31 25 9 14 20 23 24 20 11 -7 36 75 32 108 -2 15 -7 25
-12 22 -13 -8 -152 14 -167 27 -19 16 -101 18 -113 3z m11 -72 c-8 -15 -10
-15 -11 -2 0 17 10 32 18 25 2 -3 -1 -13 -7 -23z m159 -69 c0 -8 -5 -12 -10
-9 -6 4 -8 11 -5 16 9 14 15 11 15 -7z m-95 -14 c8 -13 -5 -13 -25 0 -13 8
-13 10 2 10 9 0 20 -4 23 -10z m133 -2 c-3 -7 -13 -15 -24 -17 -16 -3 -17 -1
-5 13 16 19 34 21 29 4z m-103 -8 c3 -5 1 -10 -4 -10 -6 0 -11 5 -11 10 0 6 2
10 4 10 3 0 8 -4 11 -10z m45 -6 c0 -8 -4 -12 -10 -9 -5 3 -10 10 -10 16 0 5
5 9 10 9 6 0 10 -7 10 -16z"/>
<path d="M2328 3055 c-5 -6 -39 -11 -148 -24 l-55 -6 -7 -49 c-7 -51 -3 -70
12 -61 4 3 18 -10 29 -29 22 -36 50 -53 60 -38 22 35 48 62 58 62 6 0 33 10
60 21 26 12 60 21 75 21 24 -1 25 2 18 26 -19 66 -32 82 -65 82 -17 0 -34 -2
-37 -5z m-111 -135 c-3 -11 0 -20 6 -20 13 0 -13 -20 -26 -20 -11 0 -4 43 8
52 16 12 18 10 12 -12z m33 -10 c0 -5 -2 -10 -4 -10 -3 0 -8 5 -11 10 -3 6 -1
10 4 10 6 0 11 -4 11 -10z"/>
<path d="M3250 2951 c0 -6 0 -14 1 -17 0 -4 -5 -10 -11 -14 -8 -5 -6 -9 6 -14
10 -4 15 -4 12 0 -4 4 -3 15 2 25 7 12 7 20 0 24 -5 3 -10 1 -10 -4z"/>
<path d="M2346 2909 c-15 -4 -37 -16 -47 -25 -10 -9 -19 -13 -19 -8 -1 8 -22
-23 -26 -36 -1 -3 -5 -20 -9 -37 -4 -19 -14 -33 -22 -33 -13 0 -13 3 -2 18 13
15 12 16 -3 4 -11 -9 -18 -31 -20 -65 -2 -42 1 -56 19 -75 12 -13 27 -46 34
-73 12 -47 31 -52 22 -5 -5 25 28 45 75 47 36 1 91 21 93 34 0 6 8 18 17 29
14 15 16 35 14 104 -2 49 -9 96 -17 111 -8 14 -14 21 -15 16 0 -11 -51 -14
-60 -4 -3 3 -18 2 -34 -2z m112 -140 c-2 -25 -5 -28 -28 -22 -20 5 -23 3 -12
-8 18 -19 15 -35 -8 -35 -11 0 -20 4 -20 8 0 4 -7 8 -15 8 -8 0 -15 -5 -15
-11 0 -5 -8 -9 -17 -7 -10 1 -24 -1 -32 -6 -8 -5 -16 -3 -22 5 -7 12 -9 11 -9
-1 0 -9 -6 -4 -14 10 -7 14 -9 30 -5 35 4 6 4 17 -1 25 -15 24 -11 33 6 15 10
-9 20 -12 23 -7 9 14 55 27 46 13 -5 -8 2 -11 22 -7 15 2 34 5 41 5 7 1 10 6
7 12 -4 6 2 13 14 16 12 3 21 10 22 17 0 6 5 0 10 -13 5 -13 8 -36 7 -52z
m-208 -13 c0 -3 -4 -8 -10 -11 -5 -3 -10 -1 -10 4 0 6 5 11 10 11 6 0 10 -2
10 -4z"/>
<path d="M2430 2799 c0 -5 5 -7 10 -4 6 3 10 8 10 11 0 2 -4 4 -10 4 -5 0 -10
-5 -10 -11z"/>
<path d="M3215 2891 c-6 -11 9 -23 19 -14 9 9 7 23 -3 23 -6 0 -12 -4 -16 -9z"/>
<path d="M1793 2842 c1 -13 10 -19 35 -20 30 -3 32 -1 22 18 -14 26 -59 28
-57 2z"/>
<path d="M1915 2850 c-3 -5 -1 -10 4 -10 6 0 11 5 11 10 0 6 -2 10 -4 10 -3 0
-8 -4 -11 -10z"/>
<path d="M3235 2830 c-3 -5 -4 -10 -1 -10 3 0 -3 -15 -14 -32 -22 -37 -71
-138 -75 -153 -13 -59 -29 -105 -35 -105 -4 0 -10 -9 -13 -20 -3 -11 -1 -18 4
-14 5 3 9 0 9 -5 0 -6 -5 -11 -11 -11 -5 0 -8 -4 -4 -9 3 -6 -4 -34 -15 -63
-11 -29 -20 -62 -20 -74 0 -22 23 -47 53 -57 34 -13 173 25 161 44 -2 4 0 10
6 14 5 3 10 24 10 46 0 43 -19 60 -45 39 -12 -10 -15 -9 -15 4 0 18 -15 22
-25 6 -3 -5 -17 -10 -30 -10 -14 0 -29 -9 -35 -20 -12 -22 -30 -27 -30 -7 0 7
8 24 17 37 10 14 16 33 15 43 -4 23 37 89 50 81 5 -3 8 0 7 7 -2 8 2 23 7 34
6 11 16 52 23 92 7 40 19 77 27 84 19 15 18 49 -2 49 -8 0 -12 5 -9 10 3 6 4
10 1 10 -3 0 -8 -4 -11 -10z"/>
<path d="M2670 2810 c0 -5 9 -10 21 -10 11 0 17 5 14 10 -3 6 -13 10 -21 10
-8 0 -14 -4 -14 -10z"/>
<path d="M4938 2809 c-22 -13 -23 -27 -2 -50 15 -17 15 -22 -5 -69 -24 -56
-21 -70 14 -70 52 0 55 6 55 106 0 91 -1 94 -22 94 -13 0 -31 -5 -40 -11z"/>
<path d="M1675 2769 c-15 -27 -14 -29 5 -29 11 0 20 5 20 10 0 51 71 -100 95
-202 8 -35 15 -87 15 -116 0 -50 2 -53 23 -50 18 2 22 9 22 38 0 39 -46 184
-79 245 -11 22 -28 60 -37 84 -18 54 -43 61 -64 20z"/>
<path d="M458 2774 c-35 -18 -35 -30 -2 -38 32 -8 36 -5 32 27 -3 24 -4 25
-30 11z"/>
<path d="M3600 2766 c0 -2 6 -9 14 -15 10 -9 16 -8 26 4 11 13 8 15 -14 15
-14 0 -26 -2 -26 -4z"/>
<path d="M1542 2746 c2 -14 13 -21 37 -24 21 -2 31 0 26 7 -3 6 -14 11 -24 11
-9 0 -23 6 -30 13 -10 10 -12 8 -9 -7z"/>
<path d="M2082 2680 c-1 -66 -12 -147 -23 -189 -2 -7 -21 -31 -41 -53 -36 -36
-48 -60 -30 -57 24 4 40 -3 45 -21 3 -11 1 -18 -4 -14 -11 7 -11 -7 0 -25 5
-7 14 -10 20 -7 6 4 11 1 11 -7 0 -8 11 -14 28 -15 15 0 47 -10 72 -21 75 -34
151 -25 150 18 -1 40 -86 101 -108 79 -17 -17 -28 20 -27 92 0 46 4 64 13 63
6 -2 12 4 12 12 0 17 -16 20 -25 5 -13 -21 -25 -8 -55 55 -35 76 -36 81 -10
88 14 4 19 12 18 30 -1 14 -7 23 -12 20 -5 -4 -7 0 -4 8 4 9 -1 15 -11 15 -14
0 -17 -13 -19 -76z"/>
<path d="M3293 2743 c0 -12 5 -19 11 -16 5 4 7 -1 3 -10 -4 -11 -1 -17 7 -17
8 0 17 7 20 16 9 23 8 27 -9 20 -8 -3 -19 2 -24 12 -9 15 -10 14 -8 -5z"/>
<path d="M127 2725 c-37 -26 -47 -48 -26 -60 6 -4 20 3 31 15 15 16 28 20 47
17 43 -9 58 6 32 32 -27 27 -38 26 -84 -4z"/>
<path d="M3270 2690 c0 -11 -4 -20 -10 -20 -5 0 -10 -6 -10 -14 0 -8 -6 -17
-12 -19 -9 -4 -5 -12 12 -27 l25 -21 -24 7 c-20 5 -23 3 -18 -10 4 -10 3 -15
-3 -11 -16 10 -12 -22 5 -39 20 -19 19 -27 -2 -19 -12 5 -15 2 -10 -10 3 -9 0
-22 -7 -29 -10 -10 -9 -15 8 -29 23 -19 46 -9 46 18 0 14 33 162 46 206 4 12
0 17 -16 17 -12 0 -18 5 -15 10 3 6 1 10 -4 10 -6 0 -11 -9 -11 -20z"/>
<path d="M537 2684 c-6 -6 32 -54 44 -54 4 0 10 7 13 16 9 24 -38 56 -57 38z"/>
<path d="M3641 2632 c-66 -99 -91 -148 -91 -176 0 -21 -3 -27 -9 -18 -6 10
-11 6 -19 -15 -18 -46 -24 -80 -15 -86 16 -10 29 7 42 53 16 56 75 174 107
217 23 31 32 63 17 63 -5 0 -19 -17 -32 -38z"/>
<path d="M3720 2655 c0 -8 5 -15 10 -15 6 0 10 7 10 15 0 8 -4 15 -10 15 -5 0
-10 -7 -10 -15z"/>
<path d="M2 2558 c3 -74 5 -83 23 -87 38 -7 42 -41 4 -41 -27 0 -34 -24 -15
-52 20 -28 20 -48 1 -48 -12 0 -15 -13 -15 -60 0 -57 1 -60 25 -60 24 0 57
-39 35 -41 -5 -1 -14 -3 -20 -4 -5 -1 -15 -3 -20 -4 -6 0 -8 -12 -4 -26 4 -15
2 -25 -5 -25 -7 0 -10 -36 -9 -108 l1 -109 36 -1 c22 -1 41 -9 49 -19 12 -16
9 -18 -25 -21 -50 -4 -63 -18 -30 -33 21 -9 30 -9 42 1 21 18 45 5 45 -24 0
-20 6 -27 28 -32 15 -3 32 -7 38 -9 21 -6 32 11 48 74 9 36 22 71 29 79 15 19
69 42 98 42 20 0 48 25 70 63 16 28 -43 22 -79 -8 -21 -17 -32 -21 -40 -13 -8
8 -18 2 -38 -21 -24 -29 -31 -32 -77 -30 -36 2 -58 9 -79 27 -45 38 -49 53
-32 113 9 28 14 63 11 76 -6 33 11 37 64 19 55 -20 78 -20 85 -2 3 8 22 22 42
31 20 9 49 24 65 33 24 15 29 15 37 2 8 -11 1 -24 -30 -52 -21 -21 -48 -38
-59 -38 -28 0 -29 -19 -6 -68 21 -43 21 -43 40 -22 10 11 30 20 45 20 15 0 33
7 40 15 19 23 46 18 70 -12 26 -33 91 -63 139 -63 45 0 57 -8 71 -44 9 -25 14
-27 38 -21 15 4 52 7 82 7 32 -1 77 6 111 18 54 20 59 20 99 4 40 -16 42 -16
61 3 20 20 20 20 -5 37 -14 9 -26 22 -26 29 0 7 -6 21 -13 31 -12 17 -15 17
-49 -3 -34 -21 -38 -21 -99 -6 -35 8 -83 15 -107 15 -24 0 -52 5 -63 10 -10 6
-45 11 -76 12 -71 1 -93 11 -93 43 0 46 53 74 65 35 8 -25 15 -25 57 -1 49 28
112 43 140 32 13 -5 42 -24 65 -44 35 -29 48 -34 85 -32 24 2 50 -1 59 -6 12
-6 25 -2 43 12 31 24 27 35 -14 44 -16 3 -32 14 -35 24 -3 10 -14 27 -26 39
-11 12 -15 22 -10 22 5 0 12 -4 15 -8 2 -4 24 -9 47 -11 23 -1 46 -4 49 -6 4
-2 17 21 29 51 23 54 67 98 105 105 12 3 23 19 32 49 8 25 14 46 14 47 0 2
-15 -6 -32 -17 -23 -14 -51 -20 -91 -20 -61 0 -87 9 -125 43 -14 13 -38 22
-66 23 -24 1 -61 11 -82 22 -42 21 -194 39 -194 22 0 -14 35 -30 82 -38 89
-15 71 -75 -19 -61 -109 16 -123 22 -144 50 -11 16 -27 29 -36 29 -8 0 -36 18
-61 41 -39 34 -48 38 -57 25 -6 -8 -10 -28 -9 -45 l2 -30 -92 2 c-50 1 -94 6
-97 11 -4 4 -28 12 -54 17 -49 9 -94 -6 -121 -40 -7 -9 -19 -11 -33 -6 l-23 7
21 15 c37 25 16 83 -30 83 -18 0 -20 -6 -17 -82z m976 -78 c43 -26 39 -53 -8
-60 -20 -4 -40 -9 -45 -12 -6 -3 -25 0 -43 7 -42 18 -45 59 -4 73 42 16 64 14
100 -8z m-755 -19 c4 -19 -15 -30 -50 -31 -19 0 -16 27 5 39 26 16 39 13 45
-8z m217 9 c0 -5 -7 -10 -15 -10 -8 0 -15 5 -15 10 0 6 7 10 15 10 8 0 15 -4
15 -10z m231 0 c10 -6 19 -17 19 -24 0 -9 20 -15 61 -19 64 -6 81 -17 77 -52
-3 -16 -11 -20 -43 -20 l-40 0 3 -37 c3 -41 -9 -48 -42 -23 -16 12 -17 15 -4
20 17 7 17 60 0 77 -5 5 -27 8 -48 6 -32 -2 -43 -10 -64 -42 -29 -42 -63 -65
-97 -66 -31 0 -38 34 -18 86 18 47 39 64 77 64 13 0 37 9 53 20 35 23 39 24
66 10z m-283 -102 c28 -28 10 -46 -64 -62 -43 -10 -53 16 -19 50 26 26 64 31
83 12z"/>
<path d="M3838 2613 c-24 -6 -23 -19 1 -26 11 -3 22 1 25 9 6 16 -3 22 -26 17z"/>
<path d="M4131 2598 c-4 -12 -6 -31 -3 -41 4 -16 11 -18 45 -13 68 11 91 48
41 66 -43 17 -74 12 -83 -12z"/>
<path d="M1210 2588 l-25 -10 30 -14 c17 -7 35 -13 41 -14 7 0 15 -7 18 -16 5
-13 9 -14 21 -4 19 16 19 30 0 30 -8 0 -24 9 -35 20 -11 11 -21 20 -22 19 -2
0 -14 -5 -28 -11z"/>
<path d="M1477 2593 c-4 -3 -7 -22 -7 -41 0 -28 5 -36 30 -45 26 -10 32 -22
60 -112 18 -55 36 -113 41 -129 5 -16 9 -39 9 -52 0 -22 16 -41 27 -31 16 16
1 85 -36 165 -23 49 -41 92 -41 97 0 10 -68 155 -73 155 -2 0 -7 -3 -10 -7z"/>
<path d="M4423 2570 c-13 -5 -23 -16 -23 -23 0 -12 7 -12 39 -4 26 7 37 15 34
24 -6 15 -18 16 -50 3z"/>
<path d="M2597 2544 c-3 -3 -1 -15 6 -25 19 -30 106 -11 107 24 0 8 -104 10
-113 1z"/>
<path d="M2271 2510 c0 -8 7 -31 15 -50 l14 -35 -6 40 c-5 38 -25 75 -23 45z"/>
<path d="M3201 2494 c0 -11 3 -14 6 -6 3 7 2 16 -1 19 -3 4 -6 -2 -5 -13z"/>
<path d="M3900 2489 c-10 -17 -7 -19 22 -19 18 -1 44 -7 58 -14 21 -12 28 -12
52 2 23 14 31 14 53 2 19 -10 28 -11 37 -2 11 11 1 19 -34 26 -7 2 -24 6 -38
9 -14 3 -51 8 -83 11 -49 4 -59 2 -67 -15z"/>
<path d="M4360 2486 c-6 -8 -21 -16 -32 -18 -34 -5 -32 -24 7 -54 30 -23 41
-26 63 -18 35 12 39 37 12 74 -24 34 -32 36 -50 16z"/>
<path d="M4637 2482 c-14 -17 -32 -72 -23 -72 16 0 76 44 76 56 0 18 14 18 29
0 7 -8 32 -20 56 -27 36 -11 45 -18 45 -36 0 -28 -28 -37 -77 -24 -39 11 -52
10 -91 -3 -14 -5 -28 -3 -37 4 -15 12 -55 -2 -55 -20 0 -18 -40 -50 -62 -50
-15 -1 -33 -15 -51 -42 l-29 -41 -71 6 c-42 4 -74 11 -78 19 -23 41 -57 66
-96 71 -24 3 -45 2 -48 -2 -2 -5 9 -22 25 -38 26 -26 28 -32 15 -43 -8 -7 -22
-9 -31 -6 -14 5 -15 4 -5 -8 8 -10 24 -12 51 -9 34 5 43 2 67 -25 45 -47 69
-56 114 -42 28 9 45 10 68 2 50 -18 55 -12 111 108 4 8 21 16 39 18 26 3 33
-1 41 -23 14 -37 140 -95 140 -64 0 6 14 9 32 7 43 -4 61 -47 34 -77 -10 -11
-13 -22 -7 -25 20 -13 97 -17 123 -7 36 14 28 35 -23 55 -21 9 -39 20 -39 24
0 18 57 62 88 68 31 6 32 8 32 55 0 46 -2 49 -35 63 -23 10 -35 22 -35 34 0
23 -16 37 -52 46 -16 3 -28 12 -28 20 0 27 -30 38 -114 41 -69 3 -87 1 -99
-13z m133 -262 c0 -5 -4 -10 -10 -10 -5 0 -10 5 -10 10 0 6 5 10 10 10 6 0 10
-4 10 -10z"/>
<path d="M3862 2434 c-7 -14 -8 -23 -3 -19 5 3 12 1 16 -5 11 -17 25 -11 36
16 13 35 4 42 -21 19 -18 -17 -20 -17 -14 -2 10 27 -2 20 -14 -9z"/>
<path d="M2623 2422 c-19 -15 -21 -22 -14 -55 9 -38 21 -61 21 -39 0 6 9 13
19 17 18 5 41 51 41 81 0 19 -41 17 -67 -4z"/>
<path d="M3804 2344 c-21 -33 -54 -81 -75 -109 -50 -66 -64 -104 -47 -122 12
-11 20 -1 51 59 21 40 55 107 77 147 22 41 38 77 35 79 -2 2 -21 -22 -41 -54z"/>
<path d="M4015 2379 c-4 -6 -5 -12 -2 -15 2 -3 7 2 10 11 7 17 1 20 -8 4z"/>
<path d="M1284 2358 c3 -13 6 -28 6 -35 0 -7 12 -18 26 -25 40 -20 107 -178
100 -235 -8 -60 21 -68 42 -13 8 20 3 38 -24 93 -18 37 -48 91 -67 120 -19 28
-43 67 -53 85 -21 37 -39 43 -30 10z"/>
<path d="M4246 2345 c-3 -8 10 -31 29 -52 28 -31 37 -36 51 -27 34 20 40 42
19 63 -26 24 -91 35 -99 16z"/>
<path d="M2620 2250 c-1 -14 -1 -56 0 -95 0 -38 -4 -101 -10 -140 -6 -38 -14
-92 -17 -120 -2 -27 -9 -68 -15 -90 -12 -47 -22 -346 -14 -381 4 -15 14 -24
25 -24 11 0 27 -8 37 -17 15 -16 15 -17 -2 -24 -31 -12 -42 -10 -48 9 -2 9 -2
-1 2 -23 9 -49 8 -150 -1 -315 -3 -69 -7 -268 -7 -442 -1 -346 0 -336 -66
-473 -15 -33 -30 -72 -32 -87 l-3 -28 155 0 c182 0 173 -9 120 120 -19 47 -33
75 -30 64 2 -12 0 -28 -5 -35 -6 -10 -9 -8 -9 8 0 12 -3 23 -7 25 -5 2 -21 23
-38 47 -35 52 -38 100 -16 243 13 77 12 106 -3 240 -9 84 -21 180 -27 213 -13
80 -8 333 7 339 18 7 57 164 57 231 1 33 -2 95 -6 138 -3 43 -2 89 3 102 7 17
5 25 -6 29 -12 5 -14 30 -14 133 1 71 0 164 -2 208 -2 44 0 96 4 115 5 23 5
30 -2 20 -7 -12 -11 -10 -19 10 l-10 25 -1 -25z m-4 -558 c-12 -11 -17 7 -9
34 l8 29 3 -28 c2 -16 1 -31 -2 -35z m12 -132 c2 -28 -3 -41 -23 -60 l-25 -23
0 45 c0 58 8 80 29 76 10 -2 17 -15 19 -38z"/>
<path d="M4088 2243 c7 -3 16 -2 19 1 4 3 -2 6 -13 5 -11 0 -14 -3 -6 -6z"/>
<path d="M2908 2200 c-7 -24 -3 -38 8 -28 3 4 4 17 2 30 l-3 23 -7 -25z"/>
<path d="M4040 2213 c-1 -19 -156 -169 -171 -166 -22 5 -46 -24 -31 -39 6 -6
8 -17 5 -24 -4 -12 -8 -12 -21 -2 -14 11 -14 9 1 -14 9 -15 17 -36 17 -47 0
-18 27 -37 38 -26 3 3 3 5 0 5 -3 0 -2 20 3 45 11 58 114 205 144 205 29 0 40
11 42 43 1 18 -3 27 -13 27 -8 0 -14 -3 -14 -7z"/>
<path d="M4977 2170 c-17 -24 -17 -26 0 -38 16 -11 18 -10 21 8 2 11 2 28 0
38 -3 14 -6 13 -21 -8z"/>
<path d="M2187 2103 c-3 -16 0 -31 6 -35 8 -5 7 -8 -3 -8 -9 0 -15 -10 -15
-25 0 -14 1 -25 2 -25 10 0 32 63 31 88 -1 39 -14 42 -21 5z"/>
<path d="M4656 2095 c-3 -8 -3 -21 0 -29 4 -12 12 -12 51 0 55 17 62 22 43 34
-24 16 -87 12 -94 -5z"/>
<path d="M4327 2063 c-10 -57 -34 -76 -90 -68 -40 6 -46 5 -52 -14 -3 -12 -10
-19 -15 -16 -9 6 -32 -19 -25 -27 3 -3 -10 -13 -30 -22 -19 -9 -35 -24 -35
-32 0 -8 -4 -12 -10 -9 -5 3 -10 1 -10 -4 0 -6 -7 -11 -15 -11 -13 0 -19 -12
-16 -32 1 -11 -38 -20 -50 -12 -8 5 -9 3 -4 -6 6 -10 2 -12 -15 -7 l-22 6 19
-22 c29 -32 39 -52 22 -43 -8 4 -5 0 6 -9 19 -17 19 -17 -14 -11 -19 3 -33 5
-30 4 2 -2 17 -14 33 -28 16 -14 26 -19 21 -11 -6 10 -3 12 12 7 25 -8 40 9
46 51 5 34 62 103 84 103 7 0 13 11 13 23 0 40 33 60 108 66 66 6 67 7 64 33
-3 21 3 30 27 43 37 19 38 26 8 61 l-24 27 -6 -40z"/>
<path d="M4590 2045 c-10 -13 -9 -19 5 -35 18 -20 18 -20 36 7 18 26 18 28 1
35 -25 10 -28 9 -42 -7z"/>
<path d="M1756 2011 c-15 -23 111 -108 210 -141 78 -26 115 -20 148 23 35 48
36 53 16 53 -11 0 -17 -2 -15 -4 2 -3 0 -13 -6 -23 -8 -15 -14 -17 -29 -9 -15
8 -20 6 -25 -10 -7 -22 -40 -27 -48 -7 -3 6 -6 7 -6 1 -2 -21 -60 -1 -92 32
-19 20 -43 34 -57 34 -14 0 -35 12 -50 30 -28 31 -37 36 -46 21z"/>
<path d="M4613 1955 c-18 -39 26 -65 46 -27 11 20 4 36 -19 44 -10 4 -20 -3
-27 -17z"/>
<path d="M4965 1970 c-3 -5 1 -10 9 -10 8 0 18 5 21 10 3 6 -1 10 -9 10 -8 0
-18 -4 -21 -10z"/>
<path d="M4781 1960 l-25 -6 29 -20 c24 -18 28 -28 27 -61 -1 -25 4 -45 12
-52 19 -16 23 -6 31 64 7 59 7 60 -22 71 -15 5 -39 7 -52 4z"/>
<path d="M644 1920 c-12 -5 -24 -19 -27 -32 -4 -14 -23 -33 -47 -47 -22 -12
-40 -24 -40 -27 0 -7 64 -44 78 -44 8 0 11 12 10 33 -3 28 0 32 24 35 20 2 29
-3 40 -24 23 -48 38 -49 103 -9 100 60 132 59 198 -6 40 -39 77 -51 77 -25 0
7 -15 21 -34 30 -19 9 -36 22 -39 30 -6 16 -95 46 -134 46 -13 0 -26 7 -29 15
-12 30 -42 37 -73 19 -27 -16 -30 -16 -46 -1 -18 19 -30 20 -61 7z"/>
<path d="M935 1920 c4 -6 11 -8 16 -5 14 9 11 15 -7 15 -8 0 -12 -5 -9 -10z"/>
<path d="M4365 1921 c-3 -2 2 -13 10 -25 8 -11 15 -28 15 -38 0 -19 42 -25
143 -19 61 3 114 -14 134 -45 12 -19 13 -27 4 -38 -10 -12 -6 -13 24 -6 51 12
54 18 20 46 -16 13 -38 31 -48 40 -26 22 -81 44 -113 44 -23 0 -25 2 -14 15 7
9 10 19 5 23 -7 7 -173 10 -180 3z"/>
<path d="M365 1888 c-14 -9 -15 -12 -4 -19 8 -5 24 -9 37 -9 14 0 27 -9 34
-25 23 -50 60 -19 39 33 -10 23 -18 28 -50 28 -21 1 -46 -3 -56 -8z"/>
<path d="M4200 1794 c0 -8 11 -19 25 -24 27 -10 32 -37 15 -71 -10 -18 -7 -19
72 -15 46 2 99 7 118 11 27 5 39 3 49 -9 7 -9 10 -16 5 -16 -5 0 13 -12 39
-25 45 -23 50 -24 77 -10 16 8 49 15 73 15 32 0 47 5 51 16 4 9 4 19 1 22 -2
3 -53 4 -112 3 -92 -1 -104 1 -84 11 37 20 35 32 -8 56 -45 26 -71 28 -154 17
-45 -6 -61 -5 -75 7 -25 22 -92 31 -92 12z"/>
<path d="M421 1738 c-14 -5 -17 -13 -13 -34 4 -23 2 -26 -12 -21 -10 4 -35 10
-57 13 -37 6 -39 5 -39 -19 0 -14 -4 -29 -10 -32 -21 -13 -8 -45 33 -79 44
-38 41 -58 -9 -48 -26 5 -32 -9 -11 -25 20 -15 99 -43 107 -38 8 5 23 -25 16
-32 -2 -2 -32 5 -66 17 -35 12 -66 18 -71 13 -4 -4 -10 -33 -14 -63 -3 -30 -8
-56 -11 -59 -2 -3 10 -19 27 -37 l31 -32 -37 0 c-29 0 -38 5 -45 23 -7 17 -28
29 -94 50 -93 31 -103 43 -90 112 6 32 5 35 -10 30 -10 -4 -24 -7 -32 -7 -10
0 -14 -15 -14 -60 0 -46 3 -60 14 -60 8 0 21 -12 28 -27 9 -19 28 -33 62 -44
64 -23 86 -45 86 -85 0 -21 8 -40 25 -55 13 -13 25 -28 25 -33 0 -11 -153 3
-161 15 -3 6 -22 12 -42 16 l-37 6 0 -67 c0 -63 1 -66 24 -66 13 0 40 7 59 15
47 19 82 19 116 -1 24 -14 32 -14 91 1 36 9 94 23 130 31 36 8 67 19 68 24 2
6 19 10 37 10 24 0 39 -7 49 -22 19 -26 21 -58 5 -58 -7 0 -9 -12 -5 -35 5
-27 3 -37 -9 -41 -14 -6 -12 -11 11 -35 37 -39 59 -39 36 0 -14 24 -14 31 -3
45 24 29 39 23 118 -44 7 -5 17 -10 23 -10 5 0 10 -9 10 -20 0 -31 18 -24 41
15 18 31 26 35 61 35 48 0 134 -45 172 -90 25 -30 46 -39 46 -20 0 6 -9 19
-20 30 -19 19 -19 19 5 38 13 11 22 22 19 24 -2 3 0 17 6 32 8 23 15 27 42 24
28 -2 34 -8 36 -31 2 -18 -2 -29 -12 -33 -29 -11 -16 -23 15 -14 18 5 34 11
36 14 9 9 -9 86 -22 100 -10 10 -11 23 -4 54 12 53 -24 271 -48 289 -18 14
-50 2 -60 -23 -3 -7 -9 -11 -15 -8 -5 3 -12 -3 -15 -15 -7 -26 -14 -26 -44 -3
-13 11 -45 25 -71 33 -27 7 -48 16 -48 20 0 8 37 19 66 19 16 0 26 11 38 40
18 45 58 71 99 63 22 -4 27 -2 26 13 -1 38 -14 50 -57 53 -47 3 -92 -19 -92
-44 0 -20 -14 -19 -34 4 -20 22 -30 125 -15 152 7 13 3 18 -15 23 -14 3 -38
17 -54 31 -31 26 -42 24 -42 -7 0 -27 -23 -31 -66 -12 -22 10 -46 18 -55 18
-9 1 -25 11 -35 23 -17 19 -31 22 -112 25 -51 2 -101 0 -111 -4z m250 -76 c9
-24 -13 -47 -54 -57 -22 -6 -31 -3 -43 14 -8 11 -24 21 -35 21 -26 0 -24 29 3
39 12 4 45 7 72 5 39 -2 52 -7 57 -22z m-168 -57 c4 -8 2 -15 -4 -15 -18 0
-59 32 -59 46 0 12 4 12 29 0 16 -9 31 -22 34 -31z m207 -11 c0 -8 -4 -14 -9
-14 -11 0 -22 26 -14 34 9 9 23 -3 23 -20z m78 -74 c3 -18 -70 -70 -108 -77
-14 -2 -39 -15 -57 -29 -38 -29 -43 -16 -17 40 13 27 24 35 53 40 20 3 47 15
61 26 28 23 63 22 68 0z m100 -17 c12 -23 5 -43 -16 -43 -9 0 -27 -10 -40 -22
l-25 -23 7 34 c11 60 55 91 74 54z m-332 -17 c28 -22 6 -41 -24 -20 -12 8 -22
19 -22 25 0 14 23 11 46 -5z m-170 -151 c31 -13 35 -18 30 -39 -8 -31 26 -58
61 -50 17 5 25 1 29 -12 4 -11 19 -29 33 -41 31 -25 27 -31 -27 -39 -36 -5
-43 -3 -57 20 -10 14 -25 26 -35 26 -24 0 -43 26 -37 49 3 13 -5 29 -24 48
-29 28 -38 53 -19 53 6 0 27 -7 46 -15z m149 -28 c0 -15 -4 -28 -9 -29 -14 -5
-30 28 -23 46 10 26 32 14 32 -17z m404 -17 c55 -40 70 -73 51 -108 -22 -39
-37 -38 -32 2 5 44 -19 80 -56 84 -82 7 -92 12 -72 37 20 24 63 18 109 -15z
m-291 -91 c24 -9 30 -29 10 -30 -7 0 -3 -4 10 -9 31 -13 28 -26 -10 -39 -38
-13 -58 -1 -38 23 10 13 10 17 -1 20 -8 2 -22 7 -31 10 -10 3 -18 15 -18 26 0
21 17 21 78 -1z m-333 -39 c4 -6 -5 -10 -20 -10 -15 0 -24 4 -20 10 3 6 12 10
20 10 8 0 17 -4 20 -10z m417 -83 c-3 -25 3 -49 17 -73 26 -43 26 -52 4 -50
-10 0 -18 -5 -18 -13 0 -8 -6 -16 -12 -18 -15 -5 -17 13 -3 22 6 4 5 14 -4 28
-19 32 -39 114 -32 132 3 10 15 15 28 13 20 -3 23 -8 20 -41z m280 -51 c24 -8
52 -16 62 -18 19 -3 18 -5 -5 -29 -13 -14 -39 -34 -58 -44 l-35 -17 -33 36
c-39 42 -41 59 -10 74 29 14 30 14 79 -2z"/>
<path d="M4974 1739 c-3 -6 1 -18 10 -27 15 -15 16 -14 16 11 0 27 -13 36 -26
16z"/>
<path d="M1008 1613 c36 -44 62 -44 62 0 0 32 -1 33 -44 33 l-44 1 26 -34z"/>
<path d="M4232 1618 c-19 -12 -35 -32 -40 -51 -5 -20 -18 -37 -35 -45 -15 -7
-31 -21 -37 -31 -12 -23 -54 -35 -78 -22 -11 6 -24 6 -33 0 -11 -7 -11 -9 0
-9 8 0 11 -6 7 -15 -4 -10 3 -20 19 -27 14 -6 25 -17 25 -25 0 -23 17 -14 30
16 13 33 81 91 105 91 9 0 25 5 35 10 22 12 70 -6 70 -26 0 -22 21 -27 40 -9
15 14 32 17 75 13 68 -6 119 -46 113 -89 -2 -14 2 -31 9 -38 18 -16 16 -24 -8
-52 -31 -36 -6 -34 49 5 62 43 86 48 90 20 4 -26 -39 -79 -83 -102 -29 -15
-145 -117 -145 -127 0 -2 29 -13 63 -24 35 -12 73 -30 85 -41 14 -13 34 -19
59 -19 81 3 217 -68 235 -121 4 -12 10 -11 36 8 18 12 43 27 57 32 23 9 25 14
25 80 0 40 -4 70 -10 70 -5 0 -10 6 -10 14 0 8 -7 16 -15 20 -21 8 -19 43 4
55 10 6 21 7 25 4 3 -3 6 3 6 14 0 16 -5 20 -19 16 -24 -6 -42 -27 -64 -76
-15 -33 -15 -38 -2 -43 19 -8 19 -24 0 -24 -8 0 -23 -13 -34 -30 -19 -33 -31
-30 -31 7 0 13 -12 46 -26 73 -14 27 -22 54 -19 61 4 6 1 15 -6 20 -19 12 -59
11 -59 -1 0 -5 -11 -10 -24 -10 -13 0 -30 -7 -37 -17 -15 -18 -70 -43 -94 -43
-13 0 -12 6 5 40 11 22 31 47 45 56 13 8 33 31 44 50 21 35 51 46 51 19 0 -8
12 -17 28 -20 15 -3 39 -12 54 -20 24 -12 32 -12 55 0 38 20 66 19 96 -5 33
-26 37 -25 37 8 0 22 -12 39 -50 71 -45 38 -56 43 -90 39 -28 -2 -40 0 -40 9
0 7 12 13 26 13 14 0 33 9 43 21 10 13 29 22 45 22 15 0 24 2 21 6 -4 3 -39 6
-78 6 l-72 0 1 33 c2 36 -11 43 -21 12 -3 -11 -12 -20 -20 -20 -7 0 -15 -5
-17 -10 -7 -23 -118 -22 -118 0 0 5 16 14 35 20 19 6 35 17 35 23 0 14 -60 67
-76 67 -26 0 -74 -23 -74 -35 0 -9 -10 -13 -27 -11 -19 2 -27 10 -30 26 -2 13
-4 24 -6 24 -1 1 -27 13 -57 28 -75 36 -156 43 -198 16z m58 -36 c0 -21 -18
-42 -37 -42 -16 0 -17 32 -1 48 18 18 38 15 38 -6z m490 -232 c0 -5 -4 -10
-10 -10 -5 0 -10 5 -10 10 0 6 5 10 10 10 6 0 10 -4 10 -10z m-6 -255 c-4 -8
-12 -15 -20 -15 -20 0 -17 18 4 23 9 3 18 5 19 6 1 0 0 -6 -3 -14z m45 -59
c24 -25 16 -41 -16 -30 -27 10 -53 35 -47 45 10 16 40 9 63 -15z"/>
<path d="M4755 1613 c4 -10 13 -34 20 -53 17 -45 40 -50 59 -12 17 34 15 37
-48 65 -37 17 -38 17 -31 0z"/>
<path d="M3937 1609 c7 -7 15 -10 18 -7 3 3 -2 9 -12 12 -14 6 -15 5 -6 -5z"/>
<path d="M85 1600 c-3 -5 -1 -11 5 -15 16 -10 12 -25 -6 -25 -14 0 -14 -3 -4
-15 15 -18 20 -18 43 -1 16 12 16 17 5 35 -15 24 -35 34 -43 21z"/>
<path d="M136 1592 c-3 -5 1 -9 9 -9 8 0 12 4 9 9 -3 4 -7 8 -9 8 -2 0 -6 -4
-9 -8z"/>
<path d="M18 1563 c6 -2 18 -2 25 0 6 3 1 5 -13 5 -14 0 -19 -2 -12 -5z"/>
<path d="M223 1533 c20 -20 30 -24 38 -16 8 8 3 15 -19 27 -45 23 -50 20 -19
-11z"/>
<path d="M4281 1396 c-7 -8 -27 -21 -45 -30 -30 -14 -38 -14 -70 -1 -52 22
-69 19 -107 -18 -19 -19 -41 -36 -49 -39 -11 -3 -11 -8 2 -27 14 -20 14 -26 2
-49 -18 -35 -18 -47 2 -66 8 -9 12 -16 7 -16 -5 0 -14 5 -21 12 -7 7 -12 10
-12 8 0 -3 -9 -48 -19 -100 -11 -52 -18 -96 -16 -98 2 -2 18 13 37 33 24 27
44 38 74 42 49 6 64 -9 39 -37 -23 -25 -14 -45 25 -58 30 -11 31 -10 49 31 18
42 18 42 -3 45 -12 2 -34 16 -49 30 -23 22 -27 33 -23 57 8 38 43 75 73 75 13
0 23 5 23 10 0 6 -9 10 -20 10 -25 0 -27 32 -3 60 29 34 93 21 93 -18 0 -10
-7 -12 -25 -8 l-26 7 21 -21 c11 -11 27 -20 35 -20 15 0 135 116 135 131 0 3
-14 9 -32 13 -18 3 -44 18 -59 32 -22 21 -28 23 -38 10z"/>
<path d="M4967 1394 c-9 -10 2 -24 19 -24 8 0 14 7 14 15 0 15 -21 21 -33 9z"/>
<path d="M70 1001 c0 -5 13 -14 30 -21 25 -10 34 -10 55 4 14 9 25 19 25 21 0
3 -25 5 -55 5 -30 0 -55 -4 -55 -9z"/>
<path d="M4290 980 c-13 -17 -28 -30 -34 -29 -26 3 -35 -3 -44 -30 l-10 -28
40 10 c26 7 46 6 62 -1 14 -6 28 -7 37 -1 27 17 55 9 89 -26 25 -26 39 -33 56
-29 13 3 29 1 36 -5 7 -6 24 -20 38 -30 14 -11 23 -21 20 -24 -8 -8 -70 5 -65
13 3 4 -7 8 -20 8 -37 0 -38 -11 -7 -65 l28 -48 120 -7 c65 -3 137 -11 158
-16 27 -7 46 -7 59 0 22 11 78 3 119 -18 l28 -15 0 79 c0 74 -2 80 -31 110
-17 18 -35 32 -39 32 -5 0 -15 3 -24 6 -11 4 -16 1 -16 -10 0 -17 -12 -21 -24
-8 -8 7 -13 8 -42 11 -10 1 -14 7 -10 16 7 19 -48 55 -83 55 -18 0 -22 4 -18
20 6 25 -13 40 -44 34 -21 -4 -21 -3 -4 5 20 9 20 9 1 17 -13 5 -21 3 -24 -4
-2 -7 -12 -12 -22 -12 -24 0 -41 -30 -30 -51 7 -11 2 -18 -20 -26 -24 -9 -29
-8 -33 6 -2 9 -23 21 -50 28 -26 7 -47 17 -47 23 0 5 -8 10 -18 10 -10 0 -23
5 -30 12 -6 6 -27 13 -45 15 -28 3 -38 -2 -57 -27z m360 -110 c0 -5 -2 -10 -4
-10 -3 0 -8 5 -11 10 -3 6 -1 10 4 10 6 0 11 -4 11 -10z m205 -33 c48 -17 85
-47 85 -68 0 -11 4 -18 9 -15 5 3 11 0 14 -8 4 -9 -5 -16 -26 -21 -18 -4 -39
-9 -47 -12 -28 -7 -95 -14 -143 -13 -50 0 -147 28 -147 43 0 4 8 20 18 35 10
15 23 36 28 47 17 32 136 39 209 12z"/>
<path d="M210 896 c1 -30 17 -37 40 -18 l24 19 -32 5 c-19 3 -32 0 -32 -6z"/>
<path d="M4115 900 c3 -5 -1 -10 -9 -10 -15 0 -31 -18 -23 -26 2 -3 25 0 51 7
38 9 44 14 35 25 -13 16 -64 19 -54 4z"/>
<path d="M143 873 c-13 -2 -23 -11 -23 -19 0 -9 -5 -12 -11 -8 -6 3 -14 1 -18
-5 -4 -6 -21 -14 -37 -17 -16 -3 -31 -9 -32 -15 -2 -5 -8 -7 -13 -3 -5 3 -9
-35 -9 -89 0 -78 3 -97 18 -110 10 -10 26 -17 35 -17 26 0 67 -22 67 -37 0
-16 0 -16 -43 2 -29 12 -37 12 -46 1 -9 -10 -1 -25 31 -66 30 -38 36 -50 20
-41 -40 21 -19 -13 23 -37 11 -6 14 -12 7 -12 -10 0 -10 -5 2 -22 19 -27 21
-42 4 -32 -7 4 -10 4 -6 -1 4 -4 2 -15 -5 -24 -10 -14 -10 -14 4 -3 14 10 18
10 22 -3 4 -9 -2 -19 -13 -25 -14 -8 -20 -8 -20 0 0 6 -11 15 -25 20 -14 5
-25 15 -25 23 0 11 -34 47 -45 47 -3 0 -5 -54 -5 -120 l0 -120 39 0 c21 0 52
5 70 11 25 9 31 16 31 40 0 20 8 34 28 46 15 10 30 22 33 26 4 5 20 11 36 13
16 2 55 17 86 33 53 28 97 32 97 9 0 -5 -4 -6 -10 -3 -5 3 -10 1 -10 -6 0 -6
-8 -18 -17 -25 -14 -10 -15 -12 -3 -11 8 2 22 6 30 11 8 4 2 -4 -15 -18 -16
-14 -38 -26 -47 -26 -10 0 -18 -5 -18 -10 0 -6 -3 -9 -7 -9 -5 1 -20 1 -35 0
-21 -1 -28 -6 -28 -22 0 -18 -2 -20 -16 -8 -9 7 -24 13 -35 14 -16 1 -19 -4
-17 -37 2 -21 8 -37 13 -37 24 3 33 -2 38 -20 6 -26 -1 -33 -24 -21 -12 7 -20
6 -25 -1 -5 -9 -11 -7 -20 6 -11 15 -13 13 -19 -21 -13 -77 -22 -82 -54 -31
-36 55 -46 65 -74 72 l-27 7 0 -61 0 -61 123 0 c91 1 127 4 141 15 11 8 33 15
48 15 16 0 52 13 81 29 28 16 71 32 94 36 24 4 45 11 49 16 3 5 13 9 22 9 16
-1 16 -2 1 -13 -15 -11 -14 -15 7 -47 13 -19 24 -40 24 -47 0 -10 73 -13 353
-13 334 0 355 1 371 19 16 17 16 36 6 232 -6 118 -13 243 -16 279 -7 71 -28
135 -43 126 -5 -4 -13 -1 -16 5 -5 7 -14 3 -26 -10 -11 -12 -24 -21 -30 -21
-6 0 -7 -5 -4 -10 4 -6 3 -10 -2 -9 -4 1 -10 0 -13 -1 -3 -1 -17 -4 -32 -6
-21 -3 -28 -1 -28 11 0 26 -21 17 -62 -27 -67 -73 -73 -81 -60 -86 7 -2 12 -8
12 -13 0 -4 -8 -6 -17 -2 -10 3 -15 2 -10 -2 4 -5 0 -17 -10 -27 -9 -11 -11
-18 -5 -18 21 0 13 -16 -8 -17 -13 -1 -18 3 -14 10 3 7 -2 3 -10 -7 -20 -25
-21 -6 -2 39 8 18 11 37 8 41 -4 4 -1 3 7 -1 11 -6 13 -4 8 9 -4 9 -3 15 2 12
17 -11 20 25 3 42 -20 20 -69 18 -94 -5 -10 -9 -18 -12 -18 -7 0 5 -7 1 -14
-9 -8 -10 -17 -14 -20 -9 -10 16 18 40 87 75 49 25 63 36 51 41 -9 3 -23 1
-31 -6 -11 -9 -16 -9 -23 2 -10 16 -91 15 -101 -1 -3 -6 -9 -10 -13 -10 -28 4
-46 -1 -46 -14 0 -8 -7 -15 -15 -15 -8 0 -21 -12 -29 -27 -9 -16 -16 -21 -16
-13 0 12 -2 12 -10 -2 -6 -9 -19 -15 -30 -13 -11 2 -22 0 -25 -6 -4 -5 0 -9 8
-9 8 0 22 -9 31 -19 13 -15 14 -20 4 -24 -7 -3 -3 -6 8 -6 12 -1 47 -14 77
-30 34 -18 59 -25 64 -20 6 6 17 1 28 -11 15 -16 17 -25 8 -38 -5 -9 -13 -16
-17 -14 -9 3 -3 18 7 14 4 -1 7 2 7 7 0 5 -19 7 -42 5 -50 -5 -104 11 -118 34
-8 15 -9 15 -10 -2 0 -15 -3 -16 -15 -6 -8 7 -15 9 -15 6 0 -4 -9 -2 -19 4
-26 13 -47 -8 -61 -60 -6 -22 -13 -40 -16 -40 -4 0 -4 6 -1 13 6 17 -39 11
-50 -6 -3 -6 -1 -7 5 -3 7 4 12 2 12 -3 0 -6 -7 -11 -15 -11 -8 0 -15 4 -15 8
0 8 -48 39 -65 42 -18 3 -44 32 -54 61 -8 24 -6 33 12 55 24 28 111 54 184 54
37 0 46 5 83 47 23 26 37 49 30 51 -6 2 -17 -2 -25 -8 -22 -18 -18 -8 10 30
14 19 25 40 25 47 0 14 -40 13 -75 -2 -23 -10 -128 -87 -133 -97 -2 -4 -9 -5
-17 -2 -7 3 -16 -3 -19 -14 -4 -11 -15 -22 -26 -25 -11 -3 -24 -17 -30 -32 -5
-14 -14 -23 -20 -20 -5 3 -10 -1 -10 -9 0 -9 -4 -16 -9 -16 -4 0 -8 -8 -7 -17
0 -10 -3 -18 -9 -18 -5 0 -9 6 -9 12 1 7 -2 11 -6 8 -15 -9 -62 15 -57 29 3 7
1 19 -3 27 -7 11 -13 10 -32 -7 -13 -11 -30 -20 -38 -19 -8 1 -21 3 -27 3 -18
3 -16 64 1 107 18 43 46 46 75 9 13 -16 21 -21 21 -12 0 8 -5 19 -11 25 -15
15 4 50 33 59 l23 7 -23 8 c-18 7 -21 14 -17 32 8 32 -19 44 -38 17 -9 -12
-22 -18 -36 -15 -12 2 -19 0 -16 -4 2 -5 -2 -14 -10 -21 -8 -7 -12 -16 -9 -21
3 -5 -2 -9 -10 -9 -9 0 -16 -5 -16 -11 0 -8 -4 -8 -15 1 -8 6 -19 9 -24 5 -7
-4 -8 1 -4 12 8 20 7 19 63 83 22 24 40 55 40 67 0 13 -1 22 -2 22 -2 -1 -13
-4 -25 -6z m917 -297 c0 -2 -7 -7 -16 -10 -8 -3 -12 -2 -9 4 6 10 25 14 25 6z
m130 -20 c0 -7 -40 -14 -44 -7 -3 4 6 8 20 9 13 1 24 0 24 -2z m-100 -91 c-7
-9 -15 -13 -17 -11 -6 6 20 36 26 30 2 -2 -2 -10 -9 -19z m-900 -66 c0 -5 -7
-6 -15 -3 -8 4 -15 13 -15 21 0 13 3 13 15 3 8 -7 15 -16 15 -21z m754 -48 c3
-5 -1 -11 -9 -14 -9 -4 -12 -1 -8 9 6 16 10 17 17 5z m-317 -17 c-3 -3 -12 -4
-19 -1 -8 3 -5 6 6 6 11 1 17 -2 13 -5z m283 -49 c35 -8 84 -35 63 -35 -7 0
-15 5 -18 10 -3 6 -18 9 -33 9 -17 -1 -21 -3 -9 -6 9 -2 17 -9 17 -14 0 -6 4
-8 9 -4 6 3 14 -3 20 -12 6 -10 11 -13 11 -6 0 7 7 10 15 7 11 -5 12 -10 2
-26 -10 -17 -9 -22 2 -26 10 -3 11 -6 1 -12 -20 -12 -4 -39 19 -33 26 7 81
-32 81 -58 0 -28 -28 -35 -45 -13 -8 11 -15 14 -15 8 0 -7 -7 -15 -16 -18 -9
-3 -12 -2 -9 5 4 6 -1 9 -11 7 -16 -2 -19 4 -19 34 0 34 -8 53 -23 53 -4 1
-17 6 -30 14 -13 7 -49 14 -80 17 -31 3 -60 8 -65 13 -4 4 9 28 29 52 41 50
56 62 64 50 3 -5 21 -12 40 -16z m-213 -62 c40 -31 61 -55 61 -68 0 -11 3 -28
7 -37 10 -24 -13 -23 -45 2 -14 11 -35 20 -47 20 -12 0 -35 11 -51 25 -33 28
-54 31 -74 13 -25 -25 -147 -78 -199 -88 -62 -12 -59 -12 -59 -2 0 4 40 18 89
31 111 29 191 72 191 104 0 29 18 47 45 47 12 0 49 -21 82 -47z m513 8 c70
-34 84 -46 71 -68 -6 -10 -11 -12 -11 -5 0 6 -9 12 -20 12 -15 0 -20 -7 -21
-27 0 -25 -1 -26 -9 -8 -5 11 -9 15 -9 8 -1 -17 -53 11 -96 52 -35 35 -38 61
-7 68 20 4 40 -2 102 -32z m-576 -128 c20 -44 21 -49 6 -63 -14 -14 -17 -14
-33 0 -17 17 -23 73 -11 105 8 20 11 17 38 -42z m-597 -39 c-3 -3 -12 -4 -19
-1 -8 3 -5 6 6 6 11 1 17 -2 13 -5z m630 -30 c-3 -3 -12 -4 -19 -1 -8 3 -5 6
6 6 11 1 17 -2 13 -5z"/>
<path d="M890 226 c0 -2 7 -7 16 -10 8 -3 12 -2 9 4 -6 10 -25 14 -25 6z"/>
<path d="M843 205 c0 -8 4 -12 9 -9 4 3 8 9 8 15 0 5 -4 9 -8 9 -5 0 -9 -7 -9
-15z"/>
<path d="M640 872 c0 -5 14 -18 31 -31 16 -12 34 -33 39 -47 9 -23 38 -32 54
-16 4 4 24 12 44 17 36 10 50 34 25 43 -7 2 -13 -3 -13 -12 0 -20 -29 -21 -56
-1 -30 20 -124 56 -124 47z"/>
<path d="M4300 855 c-5 -14 -16 -28 -24 -31 -8 -3 -17 -22 -21 -42 -3 -20 -8
-45 -11 -54 -3 -10 2 -18 13 -20 15 -4 13 -7 -10 -18 -19 -9 -31 -10 -35 -3
-11 17 -60 21 -97 8 -20 -6 -32 -15 -28 -19 4 -4 0 -4 -10 0 -10 3 -17 1 -17
-5 0 -6 8 -11 18 -11 10 0 27 -6 38 -14 17 -13 13 -13 -30 -5 -26 5 -51 7 -55
5 -3 -2 -36 -7 -73 -10 -57 -5 -68 -3 -68 10 0 8 -4 12 -10 9 -5 -3 -10 -15
-10 -27 0 -16 5 -19 25 -16 27 6 35 -9 10 -18 -12 -5 -9 -17 18 -65 26 -47 37
-59 57 -59 20 0 22 2 10 10 -13 9 -13 10 0 10 12 0 12 2 2 9 -22 14 10 21 52
11 21 -4 34 -4 30 1 -3 5 6 14 20 21 14 6 26 14 26 18 0 4 13 13 29 20 35 14
60 3 80 -33 13 -25 14 -25 45 -9 l32 17 -23 34 c-13 18 -23 38 -23 42 0 11
-31 12 -55 2 -15 -5 -15 -8 6 -24 32 -24 18 -34 -20 -14 -36 18 -39 30 -11 38
14 4 19 12 18 29 -3 20 1 23 27 20 17 -2 36 -7 44 -12 23 -12 144 46 123 59
-16 10 -53 91 -47 101 3 6 20 10 37 10 30 0 30 1 -18 25 -27 14 -50 25 -52 25
-1 0 -7 -11 -12 -25z"/>
<path d="M3935 857 c-8 -27 -23 -112 -20 -115 2 -2 12 1 23 7 12 6 30 11 42
11 17 0 19 -3 11 -18 -15 -29 4 -43 42 -29 l31 10 -40 33 c-39 34 -39 34 -23
63 l17 29 -40 10 c-29 8 -40 7 -43 -1z"/>
<path d="M220 831 c0 -5 9 -7 20 -4 11 3 20 7 20 9 0 2 -9 4 -20 4 -11 0 -20
-4 -20 -9z"/>
<path d="M929 798 c-1 -24 -1 -46 0 -50 0 -5 -4 -8 -10 -8 -5 0 -8 -4 -4 -9 3
-5 -5 -12 -17 -14 l-23 -4 23 -2 c27 -1 77 -37 77 -54 0 -22 43 -18 80 7 21
15 41 26 46 26 4 0 20 19 36 42 20 29 39 45 65 52 30 9 36 14 28 26 -8 12 -13
13 -30 3 -11 -7 -29 -13 -41 -13 -35 0 -102 -22 -124 -40 -11 -10 -31 -23 -44
-30 -26 -13 -23 -3 7 33 30 34 24 53 -17 66 -52 15 -51 16 -52 -31z"/>
<path d="M610 785 c0 -19 9 -19 34 0 19 14 19 15 -7 15 -17 0 -27 -5 -27 -15z"/>
<path d="M360 780 c0 -5 5 -10 11 -10 5 0 7 5 4 10 -3 6 -8 10 -11 10 -2 0 -4
-4 -4 -10z"/>
<path d="M570 750 c-6 -11 -7 -20 -2 -20 10 0 32 21 32 32 0 16 -19 8 -30 -12z"/>
<path d="M4770 639 c10 -17 14 -18 27 -8 13 12 13 14 -4 20 -30 12 -34 10 -23
-12z"/>
<path d="M1150 640 c-12 -8 -11 -10 7 -10 12 0 25 5 28 10 8 13 -15 13 -35 0z"/>
<path d="M4414 589 c-15 -36 -19 -39 -25 -23 -6 15 -8 16 -8 3 -1 -24 26 -44
42 -31 7 5 21 6 32 1 11 -4 45 -8 75 -8 57 -1 100 -21 100 -46 0 -26 -20 -26
-51 -1 -24 21 -34 24 -50 16 -10 -6 -19 -7 -19 -3 0 4 -16 8 -36 8 l-36 0 47
-43 c26 -23 45 -45 42 -49 -4 -3 -20 8 -36 26 -16 17 -36 31 -45 31 -9 0 -16
6 -16 13 0 8 -11 19 -24 25 -19 9 -25 8 -30 -4 -7 -18 -36 -18 -36 0 0 7 -8
16 -18 18 -22 6 -54 -5 -51 -17 1 -6 -6 -12 -17 -13 -10 -2 -25 -11 -31 -20
-9 -11 -13 -12 -13 -3 0 11 -3 11 -17 0 -14 -12 -16 -12 -11 1 7 21 -52 57
-63 39 -12 -20 1 -31 27 -25 16 4 22 2 19 -6 -3 -7 8 -22 24 -33 43 -30 101
-83 101 -92 0 -10 31 -38 45 -40 5 -1 11 -7 13 -15 2 -8 0 -9 -5 -3 -4 6 -14
10 -20 11 -7 1 -22 2 -34 3 -12 0 -23 10 -26 21 -3 11 -8 18 -12 15 -4 -2 -19
2 -34 10 -30 15 -48 2 -20 -14 10 -6 13 -11 6 -11 -6 0 -19 7 -28 16 -14 15
-14 17 2 30 10 7 13 14 6 14 -24 0 -42 -12 -36 -26 4 -10 0 -12 -11 -8 -20 8
-20 20 -1 32 13 7 14 14 6 35 -6 15 -15 27 -20 27 -6 0 -8 -6 -5 -14 4 -11 -3
-10 -32 5 -21 10 -42 23 -48 29 -13 13 -26 13 -26 0 0 -5 7 -10 15 -10 16 0
39 -31 50 -67 5 -20 3 -23 -21 -23 -20 0 -24 3 -16 13 8 10 6 16 -9 25 -15 10
-19 10 -19 0 0 -9 -3 -10 -8 -2 -10 16 -49 27 -56 15 -4 -5 -1 -13 5 -16 7 -5
9 -30 5 -74 -4 -36 -7 -89 -8 -118 l-2 -51 -19 30 c-10 17 -27 32 -38 35 -10
3 -19 9 -19 13 0 11 30 21 40 15 5 -3 3 7 -5 22 -8 16 -11 31 -5 37 10 13 -84
16 -96 4 -12 -12 17 -128 35 -138 9 -5 11 -10 5 -10 -16 0 -18 -138 -3 -156
14 -17 101 -19 131 -3 15 8 19 8 14 0 -9 -14 34 -15 66 -1 13 5 42 14 65 20
40 10 41 12 25 28 -25 24 -72 45 -72 31 0 -8 -4 -8 -12 -2 -7 6 -21 9 -30 8
-26 -5 -22 18 8 46 21 20 36 24 82 23 72 0 125 -27 212 -105 l65 -59 125 0
c90 0 136 4 166 16 36 14 49 14 91 4 26 -7 87 -15 136 -17 70 -4 87 -2 87 10
0 17 -37 52 -70 66 -22 10 -19 11 23 8 48 -2 48 -2 45 28 -3 27 -6 30 -33 27
-23 -2 -26 0 -15 8 16 11 6 13 -52 13 -16 0 -28 4 -28 8 0 5 -3 8 -7 7 -16 -3
-43 15 -36 25 3 5 1 7 -4 4 -6 -4 -18 4 -27 18 -9 14 -34 37 -56 51 -22 15
-37 31 -33 37 3 6 1 7 -5 3 -6 -3 -27 8 -48 26 -28 25 -46 33 -75 33 -22 0
-39 3 -39 7 0 5 3 7 8 6 12 -2 66 14 79 24 7 6 48 12 93 15 44 3 80 9 80 14 0
4 11 21 25 37 20 24 22 32 12 41 -8 6 -19 29 -26 51 -13 44 -16 46 -36 28 -59
-53 -66 -63 -52 -77 9 -9 8 -11 -5 -6 -10 4 -18 12 -18 18 0 6 -15 24 -32 39
-33 28 -55 37 -43 18 4 -6 -10 -1 -30 10 -21 12 -52 20 -73 19 -21 -1 -49 2
-64 6 -25 6 -29 4 -44 -36z m42 -11 c-4 7 -1 12 8 12 22 0 20 -17 -4 -30 -11
-6 -20 -9 -20 -6 0 2 -3 13 -7 23 -6 16 -5 17 12 3 11 -9 16 -10 11 -2z m-206
-102 c0 -3 -4 -8 -10 -11 -5 -3 -10 -1 -10 4 0 6 5 11 10 11 6 0 10 -2 10 -4z
m140 -36 c0 -5 -5 -10 -11 -10 -5 0 -7 5 -4 10 3 6 8 10 11 10 2 0 4 -4 4 -10z
m0 -61 c0 -5 5 -7 10 -4 6 3 10 0 10 -9 0 -20 -33 -13 -36 7 -1 9 2 17 7 17 5
0 9 -5 9 -11z m155 -39 c13 -11 14 -10 9 6 -4 10 -4 16 0 12 4 -3 9 -12 10
-20 1 -7 7 -23 14 -35 7 -12 12 -35 12 -51 0 -37 -25 -50 -35 -19 -6 19 -9 16
-14 -18 -4 -28 -13 -43 -30 -52 -31 -15 -63 -1 -54 24 5 13 1 15 -21 11 -16
-3 -29 -1 -31 6 -13 35 -12 67 3 87 14 21 14 22 -1 16 -19 -7 -20 -6 -11 17 3
9 14 16 24 16 10 0 20 6 23 14 6 16 77 7 102 -14z m126 -69 c13 -11 21 -22 17
-26 -7 -7 -63 19 -73 35 -11 18 32 11 56 -9z m-531 -38 c16 -20 18 -28 8 -34
-13 -8 -30 9 -22 22 2 4 -6 10 -19 14 -61 21 -63 23 -25 24 28 1 41 -5 58 -26z
m250 23 c0 -11 -19 -15 -25 -6 -3 5 1 10 9 10 9 0 16 -2 16 -4z m-85 -93 c23
-34 14 -28 -35 23 -38 39 -40 43 -12 23 18 -12 39 -33 47 -46z m496 11 c22
-21 39 -42 39 -47 0 -4 -10 2 -22 15 -38 40 -75 58 -117 58 -22 0 -43 5 -47
12 -5 8 8 10 51 5 50 -5 64 -11 96 -43z m-884 -19 c0 -8 -4 -15 -9 -15 -10 0
-11 14 -1 23 9 10 10 9 10 -8z m668 -41 c30 -68 31 -80 6 -93 -17 -10 -19 -5
-24 47 -3 31 -8 67 -12 80 -14 43 6 21 30 -34z m148 -41 c-7 -2 -19 -2 -25 0
-7 3 -2 5 12 5 14 0 19 -2 13 -5z m257 -53 c0 -5 -2 -10 -4 -10 -3 0 -8 5 -11
10 -3 6 -1 10 4 10 6 0 11 -4 11 -10z"/>
<path d="M950 579 c0 -6 24 -19 36 -19 2 0 4 6 4 14 0 9 -9 14 -20 13 -11 -1
-20 -4 -20 -8z"/>
<path d="M3857 549 c4 -14 0 -19 -16 -19 -23 0 -43 -35 -55 -99 -5 -29 -4 -32
12 -26 9 4 36 13 59 21 23 7 52 18 64 24 21 12 21 12 -11 32 -24 14 -30 22
-21 31 16 16 14 30 -4 23 -8 -3 -15 -1 -15 3 0 5 6 11 12 13 7 3 3 7 -8 10
-17 4 -20 2 -17 -13z"/>
<path d="M475 62 c-4 -9 -9 -27 -11 -39 -4 -21 -1 -23 41 -23 33 0 45 4 45 15
0 8 -5 15 -11 15 -8 0 -9 4 0 13 14 18 2 30 -16 15 -10 -8 -12 -8 -8 3 4 10
-2 15 -14 16 -11 1 -22 -6 -26 -15z"/>
<path d="M4698 3 c12 -2 30 -2 40 0 9 3 -1 5 -23 4 -22 0 -30 -2 -17 -4z"/>
</g>
</svg>
